<svg width="1089" height="302" viewBox="0 0 1089 302" fill="none" xmlns="http://www.w3.org/2000/svg">
<path d="M146.017 302C65.2347 301.176 0 234.759 0 152.949C0 70.6254 66.0551 3.88925 147.538 3.88925C203.992 3.88925 253.041 35.9237 277.846 82.9819H226.023C207.055 58.8388 178.259 43.4356 146.017 43.4356C88.895 43.4356 42.5884 91.7852 42.5884 151.428C42.5884 211.07 88.895 259.419 146.017 259.419V302Z" fill="#E6002C"/>
<path d="M289.828 192.495C293.249 179.901 295.077 166.64 295.077 152.949H112.555V192.495H289.828Z" fill="#ED6D00"/>
<path d="M481.606 76.2636L387.934 293.781C386.94 295.991 385.669 297.76 384.121 299.086C382.684 300.412 380.419 301.075 377.324 301.075H355.439L386.111 234.428L316.81 76.2636H342.342C344.884 76.2636 346.874 76.9267 348.31 78.2531C349.858 79.4689 350.908 80.8504 351.46 82.3978L396.39 188.172C398.158 192.814 399.65 197.677 400.866 202.762C402.413 197.567 404.071 192.648 405.84 188.006L449.443 82.3978C450.106 80.6294 451.211 79.1925 452.758 78.0873C454.416 76.8715 456.24 76.2636 458.229 76.2636H481.606Z" fill="#333333"/>
<path d="M494.413 244.209V76.2636H512.153C516.353 76.2636 518.95 78.3083 519.945 82.3978L522.1 99.64C528.29 92.0137 535.253 85.7689 542.99 80.9057C550.727 76.0425 559.679 73.6109 569.848 73.6109C581.122 73.6109 590.24 76.7609 597.203 83.061C604.277 89.361 609.361 97.8716 612.456 108.593C614.888 102.514 617.982 97.2637 621.74 92.8426C625.609 88.4215 629.919 84.7742 634.672 81.9005C639.425 79.0268 644.454 76.9267 649.759 75.6004C655.175 74.2741 660.646 73.6109 666.172 73.6109C675.014 73.6109 682.862 75.0478 689.714 77.9215C696.678 80.6847 702.535 84.7742 707.288 90.19C712.151 95.6058 715.854 102.293 718.396 110.251C720.938 118.098 722.209 127.106 722.209 137.274V244.209H692.533V137.274C692.533 124.122 689.659 114.174 683.912 107.432C678.164 100.58 669.875 97.1532 659.043 97.1532C654.18 97.1532 649.538 98.0374 645.117 99.8058C640.806 101.464 636.993 103.951 633.677 107.266C630.361 110.582 627.709 114.782 625.719 119.866C623.84 124.84 622.901 130.643 622.901 137.274V244.209H593.224V137.274C593.224 123.79 590.516 113.732 585.101 107.101C579.685 100.469 571.782 97.1532 561.393 97.1532C554.098 97.1532 547.356 99.1427 541.166 103.122C534.977 106.99 529.284 112.295 524.09 119.038V244.209H494.413Z" fill="#333333"/>
<path d="M803.177 129.814C812.351 129.814 820.419 128.598 827.382 126.166C834.456 123.735 840.369 120.364 845.122 116.053C849.985 111.632 853.633 106.382 856.064 100.303C858.496 94.2242 859.711 87.5373 859.711 80.2426C859.711 65.1004 855.014 53.274 845.619 44.7634C836.335 36.2528 822.188 31.9975 803.177 31.9975H765.045V129.814H803.177ZM803.177 6.63161C818.209 6.63161 831.251 8.40004 842.304 11.9369C853.467 15.3632 862.696 20.2817 869.991 26.6923C877.285 33.1028 882.701 40.8397 886.238 49.9029C889.885 58.9661 891.709 69.0793 891.709 80.2426C891.709 91.2952 889.775 101.408 885.906 110.582C882.038 119.756 876.346 127.659 868.83 134.29C861.425 140.922 852.196 146.117 841.143 149.875C830.201 153.522 817.545 155.346 803.177 155.346H765.045V244.209H733.048V6.63161H803.177Z" fill="#333333"/>
<path d="M997.802 168.609C984.207 169.051 972.602 170.156 962.986 171.925C953.481 173.583 945.688 175.793 939.609 178.556C933.641 181.319 929.275 184.58 926.512 188.338C923.859 192.096 922.533 196.296 922.533 200.938C922.533 205.359 923.252 209.172 924.688 212.377C926.125 215.583 928.059 218.235 930.491 220.335C933.033 222.325 935.962 223.817 939.278 224.812C942.704 225.696 946.352 226.138 950.22 226.138C955.415 226.138 960.168 225.641 964.478 224.646C968.789 223.541 972.823 221.993 976.581 220.004C980.449 218.014 984.097 215.638 987.523 212.875C991.06 210.112 994.486 206.962 997.802 203.425V168.609ZM902.472 99.9716C911.757 91.0189 921.759 84.332 932.481 79.911C943.202 75.4899 955.083 73.2794 968.125 73.2794C977.52 73.2794 985.865 74.8267 993.16 77.9215C1000.45 81.0162 1006.59 85.3268 1011.56 90.8531C1016.54 96.3795 1020.29 103.066 1022.84 110.914C1025.38 118.761 1026.65 127.382 1026.65 136.777V244.209H1013.55C1010.68 244.209 1008.47 243.767 1006.92 242.883C1005.37 241.888 1004.16 240.009 1003.27 237.246L999.957 221.33C995.536 225.42 991.226 229.067 987.026 232.272C982.826 235.367 978.404 238.02 973.762 240.23C969.12 242.33 964.146 243.933 958.841 245.038C953.646 246.254 947.844 246.862 941.433 246.862C934.912 246.862 928.778 245.978 923.03 244.209C917.283 242.33 912.254 239.567 907.944 235.92C903.744 232.272 900.372 227.685 897.83 222.159C895.399 216.522 894.183 209.891 894.183 202.264C894.183 195.633 896.007 189.277 899.654 183.198C903.301 177.009 909.215 171.538 917.394 166.785C925.573 162.032 936.238 158.164 949.391 155.18C962.544 152.085 978.681 150.317 997.802 149.875V136.777C997.802 123.735 994.984 113.898 989.347 107.266C983.71 100.524 975.476 97.1532 964.644 97.1532C957.349 97.1532 951.215 98.0926 946.241 99.9716C941.378 101.74 937.123 103.785 933.475 106.106C929.938 108.316 926.844 110.361 924.191 112.24C921.649 114.009 919.107 114.893 916.565 114.893C914.575 114.893 912.862 114.395 911.425 113.401C909.988 112.295 908.773 110.969 907.778 109.422L902.472 99.9716Z" fill="#333333"/>
<path d="M1088.84 0V244.209H1059.33V0H1088.84Z" fill="#333333"/>
</svg>
